<?xml version="1.0" encoding="UTF-8" standalone="no"?>
<!DOCTYPE svg PUBLIC "-//W3C//DTD SVG 1.1//EN" "http://www.w3.org/Graphics/SVG/1.1/DTD/svg11.dtd">
<svg width="100%" height="100%" viewBox="0 0 24 24" version="1.1" xmlns="http://www.w3.org/2000/svg" xmlns:xlink="http://www.w3.org/1999/xlink" xml:space="preserve" xmlns:serif="http://www.serif.com/" style="fill-rule:evenodd;clip-rule:evenodd;stroke-linecap:round;stroke-linejoin:round;">
    <g transform="matrix(1.44813,0,0,1.5279,-7.47638,2.43597)">
        <text x="8.327px" y="10.968px" style="font-family:'ArialRoundedMTBold', 'Arial Rounded MT Bold', sans-serif;font-size:12px;fill:white;">R</text>
    </g>
    <g transform="matrix(-1.08033,1.32302e-16,-1.32302e-16,-1.08033,24.9849,24.9807)">
        <path d="M4.696,18.038C7.138,17.889 10.386,20.466 10.418,22.004M2,11.544L2,4.277C2,3.18 2.903,2.277 4,2.277L20,2.277C21.097,2.277 22,3.18 22,4.277L22,20.004C22,21.101 21.097,22.004 20,22.004L10.418,22.004" style="fill:none;fill-rule:nonzero;stroke:white;stroke-width:2px;"/>
    </g>
    <g transform="matrix(-1.08033,1.32302e-16,-1.32302e-16,-1.08033,24.9849,24.9807)">
        <path d="M2,11.544C3.974,11.451 5.245,16.612 4.696,18.038M2,11.544L2,4.277C2,3.18 2.903,2.277 4,2.277L20,2.277C21.097,2.277 22,3.18 22,4.277L22,20.004C22,21.101 21.097,22.004 20,22.004L10.418,22.004" style="fill:none;fill-rule:nonzero;stroke:white;stroke-width:2px;"/>
    </g>
</svg>
