<?xml version="1.0" encoding="UTF-8" standalone="no"?>
<!DOCTYPE svg PUBLIC "-//W3C//DTD SVG 1.1//EN" "http://www.w3.org/Graphics/SVG/1.1/DTD/svg11.dtd">
<svg width="100%" height="100%" viewBox="0 0 24 24" version="1.1" xmlns="http://www.w3.org/2000/svg" xmlns:xlink="http://www.w3.org/1999/xlink" xml:space="preserve" xmlns:serif="http://www.serif.com/" style="fill-rule:evenodd;clip-rule:evenodd;stroke-linecap:round;stroke-linejoin:round;stroke-miterlimit:1.5;">
    <g transform="matrix(1.05251,0.333092,-0.316606,1.00042,4.91564,-5.40969)">
        <path d="M1.444,13.712C1.594,17.624 5.44,17.972 6.386,12.067C7.333,6.161 5.333,2.822 3.764,9.687C2.443,15.463 4.821,22.424 9.406,14.077C13.99,5.73 9.431,4.036 7.761,10.813C6.062,17.711 9.73,22.798 12.919,15.746C16.108,8.695 14.662,2.836 12.246,10.813C9.831,18.79 14.065,23.271 17.155,16.245C20.245,9.218 17.703,5.879 16.233,12.358C14.763,18.836 17.08,26.336 20.892,15.746" style="fill:none;stroke:white;stroke-width:1.86px;"/>
    </g>
</svg>
