<?xml version="1.0" encoding="UTF-8" standalone="no"?>
<!DOCTYPE svg PUBLIC "-//W3C//DTD SVG 1.1//EN" "http://www.w3.org/Graphics/SVG/1.1/DTD/svg11.dtd">
<svg width="100%" height="100%" viewBox="0 0 512 512" version="1.1" xmlns="http://www.w3.org/2000/svg" xmlns:xlink="http://www.w3.org/1999/xlink" xml:space="preserve" xmlns:serif="http://www.serif.com/" style="fill-rule:evenodd;clip-rule:evenodd;stroke-linejoin:round;stroke-miterlimit:2;">
    <g>
        <path d="M256,0C115.7,0 2.2,114.6 2.2,256C2.2,397.4 115.7,512 256,512C396.2,512 509.8,397.4 509.8,256C509.8,114.6 396.2,0 256,0ZM256,11.3C320.8,11.3 381.7,36.8 427.6,83C473.3,129 498.8,191.3 498.7,256.1C498.7,321.4 473.4,382.9 427.6,429.2C382.3,475 320.5,500.8 256,500.8C191.5,500.9 129.7,475.1 84.4,429.1C38.7,383.1 13.1,320.8 13.2,256C13.2,190.7 38.5,129.2 84.3,82.9C129.6,36.9 191.5,11.1 256,11.3ZM243.3,101.3C202,112.4 163.7,133.6 112.7,192.1C61.7,250.7 71.3,299 71.3,299C71.3,299 85.4,265.7 119.2,230.7C135.3,214.1 147.2,208.5 155.5,208.5C162.8,208.1 169,214 169,221.3L169,340.1C169,351.9 161.4,354.4 154.4,354.3C148.5,354.2 143,352.1 143,352.1C177.8,402.6 260.9,409.7 260.9,409.7L297.4,370.7L298.2,371.5L331.6,400C392.8,363.7 422.3,296.3 422.3,296.3C395,325.1 377.6,331.9 367.3,331.9C358.1,331.8 354.5,326.5 354.5,326.5C354,324 353.2,287.8 352.8,251.7C352.5,214.3 352.8,176.8 354.6,176.7C365.2,156.9 398.9,116.9 398.9,116.9C336,129.3 301.7,170.6 301.7,170.6C291.5,162.6 270.9,163.9 270.9,163.9C280.6,169.2 290.2,184.7 290.2,197.6L290.2,323.9C290.2,323.9 269.1,342.5 252.9,342.5C243.2,342.5 237.3,337.2 234.1,332.9C232.8,331.2 231.8,329.4 230.9,327.4L230.9,171.4C228.6,173.1 225.9,174 223.2,174.1C219.7,174.1 216.1,172.4 213.7,167.3C211.9,163.5 210.7,157.7 210.7,149.3C210.8,120.4 243.3,101.3 243.3,101.3Z" style="fill:white;fill-rule:nonzero;"/>
    </g>
</svg>
